<svg xmlns="http://www.w3.org/2000/svg" viewBox="0 0 358 100">
  <g transform="translate(-3 -15)">
    <path d="M42.40 101.10L42.40 101.10Q30.30 101.10 21.85 96.60Q13.40 92.10 9 84Q4.60 75.90 4.60 65.10L4.60 65.10Q4.60 56.70 7.25 49.95Q9.90 43.20 14.90 38.35Q19.90 33.50 27.15 30.95Q34.40 28.40 43.60 28.40L43.60 28.40Q48.60 28.40 53.80 29.35Q59 30.30 64 32.90L64 32.90Q66.60 34.10 67.55 36.25Q68.50 38.40 68.15 40.75Q67.80 43.10 66.45 45.05Q65.10 47 62.80 47.65Q60.50 48.30 57.60 47L57.60 47Q54.60 45.60 51.10 44.85Q47.60 44.10 43.70 44.10L43.70 44.10Q37 44.10 32.55 46.50Q28.10 48.90 25.90 53.60Q23.70 58.30 23.70 65.10L23.70 65.10Q23.70 75.30 28.70 80.50Q33.70 85.70 43.50 85.70L43.50 85.70Q46.50 85.70 50.05 85.10Q53.60 84.50 57.20 83.40L57.20 83.40L53.80 90.30L53.80 73.20L46.80 73.20Q43.40 73.20 41.55 71.50Q39.70 69.80 39.70 66.70L39.70 66.70Q39.70 63.60 41.55 61.95Q43.40 60.30 46.80 60.30L46.80 60.30L61.60 60.30Q65.10 60.30 66.95 62.15Q68.80 64 68.80 67.50L68.80 67.50L68.80 89.60Q68.80 92.60 67.55 94.70Q66.30 96.80 63.60 97.70L63.60 97.70Q58.90 99.30 53.40 100.20Q47.90 101.10 42.40 101.10ZM103.50 100.90L103.50 100.90Q99.10 100.90 96.70 98.45Q94.30 96 94.30 91.60L94.30 91.60L94.30 44.50L78.60 44.50Q74.90 44.50 72.95 42.55Q71 40.60 71 37L71 37Q71 33.30 72.95 31.40Q74.90 29.50 78.60 29.50L78.60 29.50L128.40 29.50Q132.10 29.50 134.05 31.40Q136 33.30 136 37L136 37Q136 40.60 134.05 42.55Q132.10 44.50 128.40 44.50L128.40 44.50L112.70 44.50L112.70 91.60Q112.70 96 110.40 98.45Q108.10 100.90 103.50 100.90ZM149.40 100.90L149.40 100.90Q145 100.90 142.55 98.45Q140.10 96 140.10 91.40L140.10 91.40L140.10 39Q140.10 34.40 142.55 31.95Q145 29.50 149.70 29.50L149.70 29.50L183 29.50Q186.60 29.50 188.40 31.30Q190.20 33.10 190.20 36.50L190.20 36.50Q190.20 40 188.40 41.85Q186.60 43.70 183 43.70L183 43.70L158.50 43.70L158.50 57.90L180.80 57.90Q184.30 57.90 186.15 59.70Q188 61.50 188 64.90L188 64.90Q188 68.40 186.15 70.20Q184.30 72 180.80 72L180.80 72L158.50 72L158.50 91.40Q158.50 100.90 149.40 100.90ZM220.50 101.10L220.50 101.10Q216.50 101.10 212.15 100.55Q207.80 100 203.90 98.90Q200 97.80 196.90 96.30L196.90 96.30Q194.20 95 193.10 92.85Q192 90.70 192.30 88.30Q192.60 85.90 194 84.05Q195.40 82.20 197.70 81.55Q200 80.90 202.90 82.20L202.90 82.20Q206.70 84 211.50 85Q216.30 86 220.50 86L220.50 86Q227.10 86 229.75 84.25Q232.40 82.50 232.40 79.90L232.40 79.90Q232.40 77.60 230.55 76.20Q228.70 74.80 224 73.80L224 73.80L212.30 71.30Q202.70 69.30 198 64.30Q193.30 59.30 193.30 51.40L193.30 51.40Q193.30 46.20 195.45 41.95Q197.60 37.70 201.55 34.70Q205.50 31.70 210.95 30.05Q216.40 28.40 223.10 28.40L223.10 28.40Q228.30 28.40 233.65 29.55Q239 30.70 242.90 33L242.90 33Q245.20 34.20 246.20 36.30Q247.20 38.40 247 40.65Q246.80 42.90 245.45 44.60Q244.10 46.30 241.85 46.85Q239.60 47.40 236.50 46.10L236.50 46.10Q233.60 44.80 229.95 44.15Q226.30 43.50 222.90 43.50L222.90 43.50Q219.20 43.50 216.60 44.35Q214 45.20 212.65 46.80Q211.30 48.40 211.30 50.50L211.30 50.50Q211.30 52.60 213.05 54.05Q214.80 55.50 219.50 56.50L219.50 56.50L231.10 59Q240.80 61.10 245.60 65.90Q250.40 70.70 250.40 78.40L250.40 78.40Q250.40 83.60 248.30 87.80Q246.20 92 242.30 94.95Q238.40 97.90 232.90 99.50Q227.40 101.10 220.50 101.10Z" fill="#E8734A"></path>
  </g>
  <g transform="translate(262 2)">
    <rect width="96" height="96" rx="17" fill="#E8734A"></rect>
    <path d="M 27 27 L 69 69 M 69 27 L 27 69" stroke="#FFF8F0" stroke-width="14" fill="none" stroke-linecap="round" stroke-linejoin="round"></path>
  </g>
</svg>